<?xml version="1.0" encoding="UTF-8"?><svg id="Layer_1" xmlns="http://www.w3.org/2000/svg" viewBox="0 0 538.23 538.28"><path d="M258.13,0h21.93c.97,.14,1.94,.37,2.92,.42,15.62,.7,31.04,2.82,46.25,6.39,58.38,13.69,107.1,43.35,145.73,89.16,36.92,43.78,57.58,94.44,62.33,151.55,.29,3.54,.62,7.09,.93,10.63v21.93c-.15,.98-.38,1.95-.42,2.93-.84,18.37-3.58,36.46-8.32,54.22-15.15,56.78-45.48,103.91-91.06,140.94-44.03,35.78-94.64,55.41-151.22,59.44-27.42,1.95-54.58-.26-81.27-6.91-65.54-16.3-118.03-52.04-157.07-107.07C18.81,381.25,2.9,333.8,.34,281.87c-1.35-27.39,1.35-54.37,8.38-80.85,15.09-56.8,45.45-103.92,91.05-140.95C142.81,25.11,192.2,5.5,247.51,.93c3.54-.29,7.08-.62,10.62-.93Zm248.21,269.23c.15-130.47-105.94-237.14-236.07-237.35-131.53-.21-238.19,105.47-238.42,236.24-.24,131.2,105.53,237.99,235.94,238.22,132,.23,238.39-105.52,238.55-237.11Z"/><path d="M183.37,300.79v171.16c-.78-.24-1.39-.36-1.95-.6-33.18-14.47-61.16-35.78-83.99-63.85-.75-.93-1.24-2.37-1.24-3.57-.06-90.03-.06-180.06,0-270.09,0-1.14,.37-2.52,1.07-3.38,23.01-28.37,51.25-49.88,84.82-64.34,.29-.12,.6-.21,1.21-.42V218.58h171.16V65.44c5.26,2.49,10.08,4.62,14.76,7.03,27.62,14.2,51.25,33.35,70.82,57.47,.89,1.1,1.49,2.8,1.49,4.22,.07,89.78,.07,179.56,0,269.34,0,1.36-.46,3.01-1.3,4.05-22.72,27.93-50.54,49.19-83.55,63.61-.58,.26-1.19,.47-2.13,.83v-171.21H183.37Z"/></svg>